# xmcd
#
# Track frame offsets: 
#        150
#        11771
#        24158
#        40348
#        51409
#        65622
#        77939
#        87039
#        99885
#        112688
#        125887
#        137493
#        149642
#        160949
#        173630
#        191754
#        206054
#        219303
#        235691
#        250499
#        265893
#        280756
#        297028
#        306210
#        320790
#        330064
#        339529
#
# Disc length: 4647 seconds
#
# Revision: 1
# Processed by: cddbd v1.5.2PL0 Copyright (c) Steve Scherf et al.
# Submitted via: ExactAudioCopy v0.99pb3
#
DISCID=8712251b
DTITLE=Various Artist - 101 Country Hits
DYEAR=2007
DGENRE=Country
TTITLE0=Johnny Cash - Ring Of Fire
TTITLE1=Dolly Parton - 9 To 5
TTITLE2=The Charlie Daniels Band - The Devil Went Down To Georgia
TTITLE3=Jerry Reed - Guitar Man
TTITLE4=Glen Campbell - Rhinestone Cowboy
TTITLE5=Johnny Cash With June Carter - Jackson
TTITLE6=Tammy Wynette - Your Good Girl's Gonna Go Bad
TTITLE7=Lynn Anderson - Rose Garden
TTITLE8=Billie Jo Spears - '57 Chevrolet
TTITLE9=Dr Hook - When You're In Love With A Beautiful Woman
TTITLE10=Roy Orbison - Dream Baby (How Long Must I Dream)
TTITLE11=Charlie Rich - The Most Beautiful Girl
TTITLE12=Crystal Gayle - Don't It Make My Brown Eyes Blue
TTITLE13=Kenny Rogers - Ruby, Don't Take Your Love To Town
TTITLE14=Billy Swan - I Can Help
TTITLE15=Eddie Rabbitt - I Love A Rainy Night
TTITLE16=Hal Ketchum - Small Town Saturday Night
TTITLE17=Rodney Atkins - If You're Going Through Hell (Before The Devi
TTITLE17=l Even Knows)
TTITLE18=Jo Dee Messina - My Give A Damn's Busted
TTITLE19=Juice Newton - Queen Of Hearts
TTITLE20=Asleep At The Wheel - Lay Down Sally
TTITLE21=Steve Holy - Brand New Girlfriend
TTITLE22=Johnnie Allan - The Promised Land
TTITLE23=Hayseed Dixie - Dueling Banjos
TTITLE24=Flatt and Scruggs - Ballad Of Jed Clampett
TTITLE25=Waylon Jennings - Good Ol' Boys (Theme From 'The Dukes Of Haz
TTITLE25=zard')
TTITLE26=The Everly Brothers - Wake Up Little Susie
EXTD=
EXTT0=
EXTT1=
EXTT2=
EXTT3=
EXTT4=
EXTT5=
EXTT6=
EXTT7=
EXTT8=
EXTT9=
EXTT10=
EXTT11=
EXTT12=
EXTT13=
EXTT14=
EXTT15=
EXTT16=
EXTT17=
EXTT18=
EXTT19=
EXTT20=
EXTT21=
EXTT22=
EXTT23=
EXTT24=
EXTT25=
EXTT26=
PLAYORDER=
